#!OML:ASF G:\JayActor3\Patient Classification 1\Patient 1\Session 5\male.ASF
:FULLY-SPECIFIED
:DEGREES
441
root 19.0693 16.63 -4.97794 783.413 95.8055 787.5
lowerback 1.78909 0.273008 5.99542
upperback 2.41477 0.440719 0.177016
thorax 1.53002 0.333211 -3.17951
lowerneck -10.636 0.252521 3.13528
upperneck 14.5999 -0.184407 0.580076
head 6.18171 0.172814 -0.341516
rclavicle 3.96327e-015 -1.15295e-014
rhumerus -28.7486 -6.47915 -85.2613
rradius 23.4253
rwrist 8.07224
rhand -16.9953 -5.96055
rfingers 7.12502
rthumb 9.23992 -35.7381
lclavicle 3.96327e-015 -1.15295e-014
lhumerus -35.7008 11.4186 79.8654
lradius 21.8243
lwrist 9.27417
lhand -16.9007 14.5392
lfingers 7.12502
lthumb 9.33114 44.3127
rfemur -5.61972 -0.637386 32.7152
rtibia 31.6904
rfoot -22.0086 -11.75
rtoes 9.20542
lfemur -17.9692 2.12599 -12.4482
ltibia 60.7484
lfoot -10.9384 6.30992
ltoes -15.0604
442
root 19.2041 16.6101 -4.97344 785.47 95.8259 789.484
lowerback 1.81863 0.351506 6.15393
upperback 2.38996 0.549457 0.16274
thorax 1.50117 0.388804 -3.2838
lowerneck -10.6489 0.233918 3.13282
upperneck 14.6809 -0.20899 0.579004
head 6.20929 0.162599 -0.343482
rclavicle 9.74045e-015 -7.15625e-015
rhumerus -28.2833 -5.98196 -85.4762
rradius 23.6827
rwrist 7.81499
rhand -16.969 -6.0562
rfingers 7.12502
rthumb 9.26529 -35.8326
lclavicle 9.74045e-015 -7.15625e-015
lhumerus -36.0498 11.3065 79.7869
lradius 22.0377
lwrist 9.48078
lhand -16.8593 14.5764
lfingers 7.12502
lthumb 9.37109 44.3481
rfemur -5.22893 -0.766691 32.8364
rtibia 31.8098
rfoot -22.3812 -11.4203
rtoes 9.05776
lfemur -18.9731 1.97656 -12.5874
ltibia 59.6883
lfoot -11.7597 7.03993
ltoes -14.8191
443
root 19.3397 16.5916 -4.96903 787.413 95.8555 791.349
lowerback 1.8379 0.422776 6.30823
upperback 2.36782 0.647807 0.149574
thorax 1.48032 0.439362 -3.38453
lowerneck -10.669 0.218891 3.12978
upperneck 14.7578 -0.228699 0.575666
head 6.23688 0.154398 -0.34568
rclavicle -1.73937e-016 1.11319e-014
rhumerus -27.8109 -5.47249 -85.6906
rradius 23.9467
rwrist 7.51767
rhand -17.0088 -6.11262
rfingers 7.12502
rthumb 9.22685 -35.8907
lclavicle -1.73937e-016 1.11319e-014
lhumerus -36.3849 11.2306 79.7009
lradius 22.2317
lwrist 9.64061
lhand -16.8368 14.6111
lfingers 7.12502
lthumb 9.39282 44.3818
rfemur -4.79845 -0.889337 32.9523
rtibia 31.8502
rfoot -22.7299 -11.117
rtoes 8.89602
lfemur -19.9114 1.84168 -12.718
ltibia 58.4794
lfoot -12.4829 7.66842
ltoes -14.6616
444
root 19.4764 16.5758 -4.96461 789.246 95.8968 793.103
lowerback 1.84621 0.485522 6.45828
upperback 2.35239 0.733858 0.141567
thorax 1.47165 0.484193 -3.47736
lowerneck -10.6921 0.208073 3.12152
upperneck 14.8224 -0.241897 0.571039
head 6.26119 0.148624 -0.346899
rclavicle -8.70925e-015 0
rhumerus -27.3302 -4.94612 -85.9031
rradius 24.218
rwrist 7.1793
rhand -17.0889 -6.14674
rfingers 7.12502
rthumb 9.14953 -35.9283
lclavicle -8.70925e-015 0
lhumerus -36.7031 11.197 79.6098
lradius 22.4017
lwrist 9.76139
lhand -16.8386 14.6307
lfingers 7.12502
lthumb 9.39109 44.4015
rfemur -4.30869 -1.00424 33.0673
rtibia 31.7868
rfoot -23.0555 -10.8403
rtoes 8.74783
lfemur -20.7677 1.72752 -12.8361
ltibia 57.1134
lfoot -13.09 8.19364
ltoes -14.6772
445
root 19.6144 16.5633 -4.96024 790.99 95.9497 794.769
lowerback 1.84486 0.541428 6.61045
upperback 2.34274 0.809972 0.13592
thorax 1.47378 0.524569 -3.56877
lowerneck -10.7245 0.201143 3.11328
upperneck 14.8805 -0.250141 0.564893
head 6.28511 0.14492 -0.348198
rclavicle 8.05078e-015 4.77083e-015
rhumerus -26.849 -4.42425 -86.109
rradius 24.5045
rwrist 6.82782
rhand -17.1916 -6.14419
rfingers 7.12502
rthumb 9.05049 -35.93
lclavicle 8.05078e-015 4.77083e-015
lhumerus -37.0051 11.1988 79.5117
lradius 22.5466
lwrist 9.84929
lhand -16.8605 14.6397
lfingers 7.12502
lthumb 9.36995 44.4114
rfemur -3.7495 -1.11319 33.1822
rtibia 31.605
rfoot -23.3472 -10.5825
rtoes 8.62753
lfemur -21.5327 1.63534 -12.9426
ltibia 55.5877
lfoot -13.5654 8.62676
ltoes -14.7593
446
root 19.7536 16.5533 -4.95615 792.679 96.0192 796.382
lowerback 1.83502 0.591361 6.77263
upperback 2.33963 0.877409 0.135113
thorax 1.487 0.561311 -3.66055
lowerneck -10.7706 0.196882 3.09173
upperneck 14.9354 -0.255185 0.570949
head 6.31044 0.142865 -0.343166
rclavicle -2.48481e-017 -2.38542e-015
rhumerus -26.3651 -3.89332 -86.3082
rradius 24.8037
rwrist 6.4605
rhand -17.3066 -6.11933
rfingers 7.12502
rthumb 8.93951 -35.9099
lclavicle -2.48481e-017 -2.38542e-015
lhumerus -37.2912 11.2268 79.4129
lradius 22.668
lwrist 9.92077
lhand -16.91 14.5926
lfingers 7.12502
lthumb 9.32222 44.3664
rfemur -3.12049 -1.21965 33.303
rtibia 31.3039
rfoot -23.5923 -10.3381
rtoes 8.52897
lfemur -22.2034 1.56764 -13.0366
ltibia 53.9067
lfoot -13.9146 9.0058
ltoes -15.0042
447
root 19.894 16.5456 -4.95268 794.308 96.1007 797.935
lowerback 1.8155 0.636768 6.94447
upperback 2.34025 0.937982 0.136434
thorax 1.5093 0.595208 -3.75533
lowerneck -10.8181 0.19499 3.06578
upperneck 14.9811 -0.257331 0.582824
head 6.33321 0.142211 -0.335313
rclavicle 1.79403e-014 -7.95139e-016
rhumerus -25.8955 -3.37004 -86.4992
rradius 25.1256
rwrist 6.09552
rhand -17.4343 -6.07415
rfingers 7.12502
rthumb 8.81629 -35.87
lclavicle 1.79403e-014 -7.95139e-016
lhumerus -37.5613 11.2785 79.3119
lradius 22.7592
lwrist 9.97584
lhand -16.9695 14.544
lfingers 7.12502
lthumb 9.26476 44.3204
rfemur -2.4287 -1.34221 33.4208
rtibia 30.8944
rfoot -23.7739 -10.0953
rtoes 8.4052
lfemur -22.7842 1.51955 -13.1254
ltibia 52.0822
lfoot -14.1807 9.32685
ltoes -15.1483
448
root 20.0356 16.5396 -4.94998 795.906 96.1902 799.458
lowerback 1.7856 0.677947 7.12274
upperback 2.34551 0.991901 0.140595
thorax 1.54193 0.626411 -3.85048
lowerneck -10.872 0.197373 3.02879
upperneck 15.0194 -0.253807 0.605054
head 6.35479 0.144309 -0.321862
rclavicle -4.96962e-017 1.39149e-014
rhumerus -25.4387 -2.8525 -86.68
rradius 25.4697
rwrist 5.73569
rhand -17.5607 -6.01623
rfingers 7.12502
rthumb 8.69424 -35.8172
lclavicle -4.96962e-017 1.39149e-014
lhumerus -37.8135 11.3519 79.2141
lradius 22.8215
lwrist 10.0216
lhand -17.031 14.5043
lfingers 7.12502
lthumb 9.20539 44.2833
rfemur -1.68376 -1.47748 33.5317
rtibia 30.3921
rfoot -23.8994 -9.85358
rtoes 8.25981
lfemur -23.2795 1.49732 -13.215
ltibia 50.13
lfoot -14.3698 9.61593
ltoes -15.2033
449
root 20.1782 16.5347 -4.94818 797.484 96.2883 800.959
lowerback 1.74525 0.718759 7.31031
upperback 2.35329 1.04429 0.14726
thorax 1.5834 0.657444 -3.94798
lowerneck -10.9237 0.199067 2.98525
upperneck 15.0429 -0.251045 0.633274
head 6.37132 0.145817 -0.305486
rclavicle -9.38015e-015 9.54166e-015
rhumerus -25 -2.33166 -86.8508
rradius 25.8369
rwrist 5.3667
rhand -17.6809 -5.9626
rfingers 7.12502
rthumb 8.57832 -35.7683
lclavicle -9.38015e-015 9.54166e-015
lhumerus -38.0447 11.4373 79.1233
lradius 22.8507
lwrist 10.0559
lhand -17.0906 14.4872
lfingers 7.12502
lthumb 9.14797 44.2688
rfemur -0.897444 -1.63937 33.632
rtibia 29.8106
rfoot -23.9702 -9.59996
rtoes 8.08669
lfemur -23.7004 1.50337 -13.3065
ltibia 48.0697
lfoot -14.5027 9.89048
ltoes -15.1341
450
root 20.3219 16.5308 -4.94715 798.987 96.3893 802.38
lowerback 1.69401 0.75906 7.50039
upperback 2.36098 1.09484 0.153391
thorax 1.63111 0.687889 -4.04716
lowerneck -10.9661 0.198454 2.94562
upperneck 15.0475 -0.251204 0.657968
head 6.38018 0.145433 -0.291133
rclavicle 1.80894e-014 -3.57812e-015
rhumerus -24.5864 -1.81873 -87.0114
rradius 26.2271
rwrist 4.99348
rhand -17.7854 -5.92746
rfingers 7.12502
rthumb 8.47746 -35.7373
lclavicle 1.80894e-014 -3.57812e-015
lhumerus -38.2559 11.525 79.0402
lradius 22.8449
lwrist 10.0802
lhand -17.1373 14.4888
lfingers 7.12502
lthumb 9.10287 44.2724
rfemur -0.0779765 -1.83146 33.7137
rtibia 29.1607
rfoot -23.9949 -9.33946
rtoes 7.86847
lfemur -24.0572 1.54183 -13.4075
ltibia 45.9183
lfoot -14.5923 10.154
ltoes -14.9566
451
root 20.4665 16.527 -4.94688 800.432 96.5056 803.736
lowerback 1.62672 0.799991 7.70542
upperback 2.36937 1.14458 0.163647
thorax 1.68916 0.718658 -4.15003
lowerneck -10.9962 0.192543 2.90602
upperneck 15.0293 -0.257616 0.679462
head 6.37955 0.141273 -0.278358
rclavicle -1.77167e-014 6.75868e-015
rhumerus -24.1974 -1.31968 -87.159
rradius 26.6415
rwrist 4.61402
rhand -17.8863 -5.90384
rfingers 7.12502
rthumb 8.3801 -35.7176
lclavicle -1.77167e-014 6.75868e-015
lhumerus -38.4422 11.62 78.9664
lradius 22.8012
lwrist 10.0815
lhand -17.1688 14.4884
lfingers 7.12502
lthumb 9.07244 44.2733
rfemur 0.768162 -2.05184 33.7895
rtibia 28.4475
rfoot -23.9798 -9.06006
rtoes 7.66099
lfemur -24.36 1.61594 -13.5063
ltibia 43.6956
lfoot -14.6638 10.4101
ltoes -14.6482
